<?xml version="1.0" encoding="UTF-8" standalone="no"?>
<svg
        class="h-12"
        aria-hidden="true"
        xmlns="http://www.w3.org/2000/svg"
        fill="none"
        viewBox="0 0 42 32">
    <path
            d="m 25.566742,0.48652199 c 8.562094,0 15.513477,6.95133121 15.513477,15.51347701 0,8.562094 -6.951344,15.513479 -15.513477,15.513479 -8.562107,0 -15.513478,-6.951345 -15.513478,-15.513479 0,-8.5621064 6.951331,-15.51347701 15.513478,-15.51347701 z M 19.67423,3.8607939 c -1.339955,0 -2.427839,1.08787 -2.427839,2.4278253 0,1.3399683 1.087884,2.4278386 2.427839,2.4278386 1.339955,0 2.427824,-1.0878703 2.427824,-2.4278386 0,-1.3399553 -1.087869,-2.4278253 -2.427824,-2.4278253 z"
            fill="#00295E"
            stroke="#DDAD1E"
            stroke-width="1"
            stroke-dasharray="none"/>
    <path
            d="M 10.732802,11.514641 20.979075,25.834784 H 0.48647602 L 10.732749,11.514641 Z"
            fill="#EDD472"
            stroke="#00295E"
            stroke-width="1"
            stroke-dasharray="none"/>
    <path
            d="M 3.7810339,15.835094 H 0.53956608 L 10.78584,1.5149507 21.032113,15.835094 H 17.790645 L 10.78584,6.045245 Z"
            fill="#EDD472"
            stroke="#00295E"
            stroke-width="1"
            stroke-dasharray="none"/>
</svg>
